<mxfile host="app.diagrams.net" modified="2023-03-29T18:13:59.056Z" agent="Mozilla/5.0 (Windows NT 10.0; Win64; x64) AppleWebKit/537.36 (KHTML, like Gecko) Chrome/111.0.0.0 Safari/537.36" etag="9-g1U9-CRNejNSyVXn5y" version="21.1.2" type="github">
  <diagram name="第 1 页" id="UbuT9_GUXlCiMY3kkdqx">
    <mxGraphModel dx="875" dy="478" grid="1" gridSize="10" guides="1" tooltips="1" connect="1" arrows="1" fold="1" page="1" pageScale="1" pageWidth="2339" pageHeight="3300" math="0" shadow="0">
      <root>
        <mxCell id="0" />
        <mxCell id="1" parent="0" />
        <mxCell id="f-1zvs-JG-OSIx-xGBcu-1" value="Program start" style="ellipse;whiteSpace=wrap;html=1;" parent="1" vertex="1">
          <mxGeometry x="120" y="110" width="140" height="50" as="geometry" />
        </mxCell>
        <mxCell id="f-1zvs-JG-OSIx-xGBcu-2" value="Setup the serial port communication" style="rounded=0;whiteSpace=wrap;html=1;" parent="1" vertex="1">
          <mxGeometry x="125" y="210" width="130" height="50" as="geometry" />
        </mxCell>
        <mxCell id="Zm2OJXLTSlOzFyLLAasa-1" value="Methods selected&lt;br&gt;by user" style="rounded=0;whiteSpace=wrap;html=1;" vertex="1" parent="1">
          <mxGeometry x="125" y="310" width="130" height="50" as="geometry" />
        </mxCell>
        <mxCell id="Zm2OJXLTSlOzFyLLAasa-2" value="Operating mode choose by user" style="rounded=0;whiteSpace=wrap;html=1;" vertex="1" parent="1">
          <mxGeometry x="125" y="410" width="130" height="50" as="geometry" />
        </mxCell>
        <mxCell id="Zm2OJXLTSlOzFyLLAasa-3" value="Mode 1:&lt;br&gt;Infusion only" style="rhombus;whiteSpace=wrap;html=1;" vertex="1" parent="1">
          <mxGeometry x="300" y="310" width="151" height="50" as="geometry" />
        </mxCell>
        <mxCell id="Zm2OJXLTSlOzFyLLAasa-4" value="Mode 2:&lt;br&gt;Withdraw only" style="rhombus;whiteSpace=wrap;html=1;" vertex="1" parent="1">
          <mxGeometry x="480" y="310" width="151" height="50" as="geometry" />
        </mxCell>
        <mxCell id="Zm2OJXLTSlOzFyLLAasa-5" value="Mode 3:&lt;br&gt;Infusion/ Withdraw" style="rhombus;whiteSpace=wrap;html=1;" vertex="1" parent="1">
          <mxGeometry x="670" y="310" width="151" height="50" as="geometry" />
        </mxCell>
        <mxCell id="Zm2OJXLTSlOzFyLLAasa-6" value="Mode 4:&lt;br&gt;Withdraw/ Infusion" style="rhombus;whiteSpace=wrap;html=1;" vertex="1" parent="1">
          <mxGeometry x="860" y="310" width="151" height="50" as="geometry" />
        </mxCell>
      </root>
    </mxGraphModel>
  </diagram>
</mxfile>
